<svg width="168" height="154" viewBox="0 0 168 154" fill="none" xmlns="http://www.w3.org/2000/svg">
<path d="M166.402 84.9478C175.477 42.3865 144.952 11.3066 98.7149 2.05336C92.1839 0.74569 85.5399 0.0580709 78.8748 0L83.9727 8.46682C108.083 11.0881 133.795 20.5161 148.235 40.5079C161.58 61.1289 163.564 90.7234 140.059 112.271L74.7822 7.89013L70.0936 0.253393C35.369 2.74363 7.2282 23.0413 1.15162 52.4786C-6.4997 89.5264 24.7817 127.029 71.01 136.256C88.3055 139.698 104.907 138.571 119.32 133.861L136.562 149.021C149.801 160.38 164.018 150.769 154.65 135.609L144.863 119.951C155.833 110.983 163.418 98.656 166.402 84.9478ZM38.8566 114.516C21.0629 102.476 4.15877 75.8956 10.4756 49.9446C19.8351 12.7658 63.8569 8.6241 63.8569 8.6241L133.831 117.356C132.247 118.501 130.584 119.619 128.822 120.702C126.241 122.143 123.566 123.416 120.815 124.512L31.2498 42.7622C30.7228 42.2736 30.0901 41.9084 29.3991 41.694C28.7081 41.4795 27.9766 41.4214 27.2594 41.5239C26.5423 41.6264 25.858 41.887 25.2579 42.2861C24.6578 42.6851 24.1574 43.2123 23.7942 43.8283C23.7971 43.8544 23.7971 43.8808 23.7942 43.9069C23.3886 44.6763 23.1622 45.5247 23.1314 46.3906C23.1006 47.2565 23.2663 48.1183 23.6163 48.9136C24.0433 49.9184 24.6928 50.8271 24.7017 50.5912L112.06 127.404C86.971 133.975 58.5276 127.824 38.8566 114.516ZM149.178 141.21C149.62 141.883 149.805 142.689 149.7 143.483C149.595 144.278 149.207 145.01 148.605 145.551C148.002 146.091 147.225 146.404 146.409 146.435C145.594 146.466 144.794 146.212 144.151 145.718C143.573 145.273 143.217 144.932 143.217 144.932L127.576 130.655C131.385 128.948 135.045 126.938 138.52 124.643L149.178 141.21Z" fill="white"/>
</svg>

